<svg width="64" height="64" viewBox="0 0 64 64" fill="none" xmlns="http://www.w3.org/2000/svg">
<path d="M8.9887 8.29442C8.37731 8.64378 8 9.29396 8 9.99813V26.035C8 26.7392 8.37731 27.3893 8.9887 27.7387L24.025 36.3309V19.1553C24.025 18.4511 24.4024 17.801 25.0137 17.4516L40.0501 8.85939L24.9986 0.25854C24.3953 -0.0861795 23.6548 -0.0861804 23.0515 0.258539L8.9887 8.29442Z" fill="black"/>
<path d="M8 63.8024V46.6268C8 45.9226 8.37731 45.2724 8.9887 44.9231L24.025 36.3309V53.5065C24.025 54.2106 23.6477 54.8608 23.0363 55.2102L8 63.8024Z" fill="black"/>
<path d="M55.0864 36.8959C55.6978 36.5465 56.0751 35.8963 56.0751 35.1922V19.1553C56.0751 18.4511 55.6978 17.801 55.0864 17.4516L40.0501 8.85939L40.0501 26.035C40.0501 26.7392 39.6728 27.3893 39.0614 27.7387L24.025 36.3309L39.0765 44.9317C39.6798 45.2765 40.4204 45.2765 41.0236 44.9317L55.0864 36.8959Z" fill="#E94949"/>
</svg>
