<svg width="26" height="28" viewBox="0 0 26 28" fill="none" xmlns="http://www.w3.org/2000/svg">
<path id="book" fill-rule="evenodd" clip-rule="evenodd" d="M0.903226 0C5.83015 0 9.42645 2.60091 11.4867 4.63307C12.0728 5.21118 12.5273 5.8673 12.871 6.56931C13.2147 5.8673 13.6691 5.21118 14.2552 4.63307C16.3155 2.60091 19.9118 0 24.8387 0H25.7419V22.0161H24.8387C20.9956 22.0161 18.0512 23.4876 16.1264 24.8763C15.0943 25.621 14.4255 26.7224 14.0742 28H11.6677C11.3164 26.7224 10.6477 25.621 9.61554 24.8763C7.69077 23.4876 4.74639 22.0161 0.903226 22.0161H0V0H0.903226ZM11.9677 24.6373V19.4752C10.2745 19.6864 8.76312 20.4834 7.643 21.6571C8.82508 22.1892 9.83792 22.8092 10.6725 23.4114C11.1717 23.7716 11.6013 24.1847 11.9677 24.6373ZM13.7742 24.6373V19.4752C15.4675 19.6864 16.9788 20.4834 18.0989 21.6571C16.9169 22.1892 15.904 22.8092 15.0694 23.4114C14.5702 23.7716 14.1406 24.1847 13.7742 24.6373ZM13.7742 17.6575C16.2431 17.9026 18.4196 19.1419 19.8976 20.9694C20.7858 20.688 21.7464 20.4673 22.7768 20.3378C20.8441 17.3087 17.56 15.2254 13.7742 14.9374V17.6575ZM23.9355 14.7328V18.8243C21.6445 15.589 17.9702 13.4026 13.7742 13.1264V10.821C13.7742 10.684 13.7769 10.5477 13.7823 10.4122C17.6963 10.6284 21.2412 12.2291 23.9355 14.7328ZM11.9677 10.821V13.1264C7.7717 13.4026 4.09743 15.589 1.80645 18.8243V14.7328C4.50073 12.2291 8.04563 10.6284 11.9597 10.4122C11.9651 10.5477 11.9677 10.684 11.9677 10.821ZM5.84436 20.9694C4.95614 20.688 3.99552 20.4673 2.96512 20.3378C4.89786 17.3087 8.18189 15.2254 11.9677 14.9374V17.6575C9.49882 17.9026 7.32236 19.1419 5.84436 20.9694ZM11.7057 8.6176C7.98816 8.85428 4.57629 10.2154 1.80645 12.3646V9.05945C4.33049 7.46804 7.22108 6.40501 10.3229 6.02565C11.0019 6.73681 11.4509 7.62761 11.7057 8.6176ZM8.54804 4.47785C6.14275 4.94417 3.87369 5.79225 1.80645 6.95648V1.84046C4.578 2.05011 6.84386 3.20015 8.54804 4.47785ZM23.9355 12.3646C21.1656 10.2154 17.7538 8.85428 14.0363 8.6176C14.2911 7.62761 14.74 6.73681 15.419 6.02565C18.5209 6.40501 21.4114 7.46804 23.9355 9.05945V12.3646ZM23.9355 6.95648C21.8682 5.79225 19.5992 4.94417 17.1939 4.47784C18.8981 3.20015 21.1639 2.05011 23.9355 1.84046V6.95648Z" fill="#24AEA3"/>
</svg>
